<mxfile host="app.diagrams.net" modified="2021-04-11T18:59:02.187Z" agent="5.0 (Windows NT 10.0; Win64; x64) AppleWebKit/537.36 (KHTML, like Gecko) Chrome/89.0.4389.114 Safari/537.36" etag="2_94aH1g-dnbPk5b-uGv" version="14.5.10" type="github">
  <diagram id="h6UixDwE42PRyQe0RFJy" name="Page-1">
    <mxGraphModel dx="1422" dy="794" grid="1" gridSize="10" guides="1" tooltips="1" connect="1" arrows="1" fold="1" page="1" pageScale="1" pageWidth="850" pageHeight="1100" math="0" shadow="0">
      <root>
        <mxCell id="0" />
        <mxCell id="1" parent="0" />
        <mxCell id="HApBHC3aRck4ANfjkmM4-2" value="AWS Cloud" style="points=[[0,0],[0.25,0],[0.5,0],[0.75,0],[1,0],[1,0.25],[1,0.5],[1,0.75],[1,1],[0.75,1],[0.5,1],[0.25,1],[0,1],[0,0.75],[0,0.5],[0,0.25]];outlineConnect=0;gradientColor=none;html=1;whiteSpace=wrap;fontSize=12;fontStyle=0;shape=mxgraph.aws4.group;grIcon=mxgraph.aws4.group_aws_cloud_alt;strokeColor=#232F3E;fillColor=none;verticalAlign=top;align=left;spacingLeft=30;fontColor=#232F3E;dashed=0;" vertex="1" parent="1">
          <mxGeometry x="40" y="40" width="760" height="450" as="geometry" />
        </mxCell>
        <mxCell id="HApBHC3aRck4ANfjkmM4-14" style="edgeStyle=orthogonalEdgeStyle;rounded=0;orthogonalLoop=1;jettySize=auto;html=1;entryX=0;entryY=0.326;entryDx=0;entryDy=0;entryPerimeter=0;" edge="1" parent="1" source="HApBHC3aRck4ANfjkmM4-4" target="HApBHC3aRck4ANfjkmM4-11">
          <mxGeometry relative="1" as="geometry" />
        </mxCell>
        <mxCell id="HApBHC3aRck4ANfjkmM4-4" value="Lamda Trigger" style="outlineConnect=0;dashed=0;verticalLabelPosition=bottom;verticalAlign=top;align=center;html=1;shape=mxgraph.aws3.lambda_function;fillColor=#F58534;gradientColor=none;" vertex="1" parent="1">
          <mxGeometry x="230" y="81" width="69" height="72" as="geometry" />
        </mxCell>
        <mxCell id="HApBHC3aRck4ANfjkmM4-13" style="edgeStyle=orthogonalEdgeStyle;rounded=0;orthogonalLoop=1;jettySize=auto;html=1;" edge="1" parent="1" source="HApBHC3aRck4ANfjkmM4-6" target="HApBHC3aRck4ANfjkmM4-4">
          <mxGeometry relative="1" as="geometry" />
        </mxCell>
        <mxCell id="HApBHC3aRck4ANfjkmM4-6" value="CSV Files" style="pointerEvents=1;shadow=0;dashed=0;html=1;strokeColor=none;fillColor=#DF8C42;labelPosition=center;verticalLabelPosition=bottom;verticalAlign=top;align=center;outlineConnect=0;shape=mxgraph.veeam2.aws_s3;" vertex="1" parent="1">
          <mxGeometry x="80" y="80" width="70" height="73" as="geometry" />
        </mxCell>
        <mxCell id="HApBHC3aRck4ANfjkmM4-15" style="edgeStyle=orthogonalEdgeStyle;rounded=0;orthogonalLoop=1;jettySize=auto;html=1;entryX=0;entryY=0.5;entryDx=0;entryDy=0;entryPerimeter=0;" edge="1" parent="1" source="HApBHC3aRck4ANfjkmM4-7" target="HApBHC3aRck4ANfjkmM4-9">
          <mxGeometry relative="1" as="geometry" />
        </mxCell>
        <mxCell id="HApBHC3aRck4ANfjkmM4-7" value="Glue Catalog CSV" style="outlineConnect=0;fontColor=#232F3E;gradientColor=none;fillColor=#5A30B5;strokeColor=none;dashed=0;verticalLabelPosition=bottom;verticalAlign=top;align=center;html=1;fontSize=12;fontStyle=0;aspect=fixed;pointerEvents=1;shape=mxgraph.aws4.glue_data_catalog;" vertex="1" parent="1">
          <mxGeometry x="410" y="81" width="72" height="78" as="geometry" />
        </mxCell>
        <mxCell id="HApBHC3aRck4ANfjkmM4-8" value="Glue Catalog Parquet" style="outlineConnect=0;fontColor=#232F3E;gradientColor=none;fillColor=#5A30B5;strokeColor=none;dashed=0;verticalLabelPosition=bottom;verticalAlign=top;align=center;html=1;fontSize=12;fontStyle=0;aspect=fixed;pointerEvents=1;shape=mxgraph.aws4.glue_data_catalog;" vertex="1" parent="1">
          <mxGeometry x="660" y="81" width="72" height="78" as="geometry" />
        </mxCell>
        <mxCell id="HApBHC3aRck4ANfjkmM4-16" style="edgeStyle=orthogonalEdgeStyle;rounded=0;orthogonalLoop=1;jettySize=auto;html=1;" edge="1" parent="1" source="HApBHC3aRck4ANfjkmM4-9" target="HApBHC3aRck4ANfjkmM4-8">
          <mxGeometry relative="1" as="geometry" />
        </mxCell>
        <mxCell id="HApBHC3aRck4ANfjkmM4-17" style="edgeStyle=orthogonalEdgeStyle;rounded=0;orthogonalLoop=1;jettySize=auto;html=1;" edge="1" parent="1" source="HApBHC3aRck4ANfjkmM4-9" target="HApBHC3aRck4ANfjkmM4-10">
          <mxGeometry relative="1" as="geometry" />
        </mxCell>
        <mxCell id="HApBHC3aRck4ANfjkmM4-9" value="Glue job Parquet&lt;br&gt;Conversion" style="points=[[0,0,0],[0.25,0,0],[0.5,0,0],[0.75,0,0],[1,0,0],[0,1,0],[0.25,1,0],[0.5,1,0],[0.75,1,0],[1,1,0],[0,0.25,0],[0,0.5,0],[0,0.75,0],[1,0.25,0],[1,0.5,0],[1,0.75,0]];outlineConnect=0;fontColor=#232F3E;gradientColor=#945DF2;gradientDirection=north;fillColor=#5A30B5;strokeColor=#ffffff;dashed=0;verticalLabelPosition=bottom;verticalAlign=top;align=center;html=1;fontSize=12;fontStyle=0;aspect=fixed;shape=mxgraph.aws4.resourceIcon;resIcon=mxgraph.aws4.glue;" vertex="1" parent="1">
          <mxGeometry x="536" y="81" width="78" height="78" as="geometry" />
        </mxCell>
        <mxCell id="HApBHC3aRck4ANfjkmM4-10" value="Parquet Files" style="pointerEvents=1;shadow=0;dashed=0;html=1;strokeColor=none;fillColor=#DF8C42;labelPosition=center;verticalLabelPosition=bottom;verticalAlign=top;align=center;outlineConnect=0;shape=mxgraph.veeam2.aws_s3;" vertex="1" parent="1">
          <mxGeometry x="540" y="218.5" width="70" height="73" as="geometry" />
        </mxCell>
        <mxCell id="HApBHC3aRck4ANfjkmM4-11" value="" style="rounded=0;whiteSpace=wrap;html=1;fillColor=none;" vertex="1" parent="1">
          <mxGeometry x="390" y="50" width="370" height="270" as="geometry" />
        </mxCell>
        <mxCell id="HApBHC3aRck4ANfjkmM4-18" value="Athena Queries" style="outlineConnect=0;dashed=0;verticalLabelPosition=bottom;verticalAlign=top;align=center;html=1;shape=mxgraph.aws3.athena;fillColor=#F58534;gradientColor=none;" vertex="1" parent="1">
          <mxGeometry x="536.75" y="370" width="76.5" height="76.5" as="geometry" />
        </mxCell>
        <mxCell id="HApBHC3aRck4ANfjkmM4-19" value="" style="endArrow=classic;html=1;exitX=0.484;exitY=1.007;exitDx=0;exitDy=0;exitPerimeter=0;" edge="1" parent="1" source="HApBHC3aRck4ANfjkmM4-11" target="HApBHC3aRck4ANfjkmM4-18">
          <mxGeometry width="50" height="50" relative="1" as="geometry">
            <mxPoint x="400" y="430" as="sourcePoint" />
            <mxPoint x="450" y="380" as="targetPoint" />
          </mxGeometry>
        </mxCell>
      </root>
    </mxGraphModel>
  </diagram>
</mxfile>
